<?xml version="1.0" encoding="UTF-8" standalone="no"?>
<!DOCTYPE svg PUBLIC "-//W3C//DTD SVG 1.1//EN"
 "http://www.w3.org/Graphics/SVG/1.1/DTD/svg11.dtd">
<!-- Generated by graphviz version 2.40.1 (20161225.0304)
 -->
<!-- Title: dependencies Pages: 1 -->
<svg width="1320pt" height="284pt"
 viewBox="0.00 0.00 1320.00 284.00" xmlns="http://www.w3.org/2000/svg" xmlns:xlink="http://www.w3.org/1999/xlink">
<g id="graph0" class="graph" transform="scale(1 1) rotate(0) translate(4 280)">
<title>dependencies</title>
<polygon fill="#ffffff" stroke="transparent" points="-4,4 -4,-280 1316,-280 1316,4 -4,4"/>
<text text-anchor="start" x="635.0091" y="-42.4" font-family="sans-serif" font-weight="bold" font-size="14.00" fill="#000000">Legend</text>
<polygon fill="#ffffb3" stroke="transparent" points="422,-10 422,-30 442,-30 442,-10 422,-10"/>
<text text-anchor="start" x="445.629" y="-15.4" font-family="sans-serif" font-size="14.00" fill="#000000"> &#160;Declarations</text>
<polygon fill="#8dd3c7" stroke="transparent" points="535,-10 535,-30 555,-30 555,-10 535,-10"/>
<text text-anchor="start" x="558.7251" y="-15.4" font-family="sans-serif" font-size="14.00" fill="#000000"> &#160;Module</text>
<polygon fill="#80b1d3" stroke="transparent" points="621,-10 621,-30 641,-30 641,-10 621,-10"/>
<text text-anchor="start" x="644.7812" y="-15.4" font-family="sans-serif" font-size="14.00" fill="#000000"> &#160;Bootstrap</text>
<polygon fill="#fdb462" stroke="transparent" points="718,-10 718,-30 738,-30 738,-10 718,-10"/>
<text text-anchor="start" x="741.6732" y="-15.4" font-family="sans-serif" font-size="14.00" fill="#000000"> &#160;Providers</text>
<polygon fill="#fb8072" stroke="transparent" points="814,-10 814,-30 834,-30 834,-10 814,-10"/>
<text text-anchor="start" x="837.7258" y="-15.4" font-family="sans-serif" font-size="14.00" fill="#000000"> &#160;Exports</text>
<g id="clust1" class="cluster">
<title>cluster_AppModule</title>
<polygon fill="none" stroke="#000000" stroke-dasharray="1,5" points="8,-70 8,-268 1304,-268 1304,-70 8,-70"/>
</g>
<g id="clust2" class="cluster">
<title>cluster_AppModule_declarations</title>
<polygon fill="none" stroke="#000000" points="782,-78 782,-130 1296,-130 1296,-78 782,-78"/>
</g>
<g id="clust7" class="cluster">
<title>cluster_AppModule_imports</title>
<polygon fill="none" stroke="#000000" points="351,-78 351,-130 774,-130 774,-78 351,-78"/>
</g>
<g id="clust9" class="cluster">
<title>cluster_AppModule_bootstrap</title>
<polygon fill="none" stroke="#000000" points="628,-208 628,-260 752,-260 752,-208 628,-208"/>
</g>
<g id="clust10" class="cluster">
<title>cluster_AppModule_providers</title>
<polygon fill="none" stroke="#000000" points="16,-78 16,-130 343,-130 343,-78 16,-78"/>
</g>
<!-- AppComponent -->
<g id="node1" class="node">
<title>AppComponent</title>
<polygon fill="#ffffb3" stroke="#000000" points="1287.9399,-122 1182.0601,-122 1182.0601,-86 1287.9399,-86 1287.9399,-122"/>
<text text-anchor="middle" x="1235" y="-99.8" font-family="Times,serif" font-size="14.00" fill="#000000">AppComponent</text>
</g>
<!-- AppModule -->
<g id="node5" class="node">
<title>AppModule</title>
<polygon fill="#8dd3c7" stroke="#000000" points="731.6571,-187 728.6571,-191 707.6571,-191 704.6571,-187 648.3429,-187 648.3429,-151 731.6571,-151 731.6571,-187"/>
<text text-anchor="middle" x="690" y="-164.8" font-family="Times,serif" font-size="14.00" fill="#000000">AppModule</text>
</g>
<!-- AppComponent&#45;&gt;AppModule -->
<g id="edge1" class="edge">
<title>AppComponent&#45;&gt;AppModule</title>
<path fill="none" stroke="#000000" d="M1235,-122.0109C1235,-144.4852 1235,-180 1235,-180 1235,-180 741.8603,-180 741.8603,-180"/>
<polygon fill="#000000" stroke="#000000" points="741.8603,-176.5001 731.8603,-180 741.8603,-183.5001 741.8603,-176.5001"/>
</g>
<!-- ErrorComponent -->
<g id="node2" class="node">
<title>ErrorComponent</title>
<polygon fill="#ffffb3" stroke="#000000" points="1164.3669,-122 1053.6331,-122 1053.6331,-86 1164.3669,-86 1164.3669,-122"/>
<text text-anchor="middle" x="1109" y="-99.8" font-family="Times,serif" font-size="14.00" fill="#000000">ErrorComponent</text>
</g>
<!-- ErrorComponent&#45;&gt;AppModule -->
<g id="edge2" class="edge">
<title>ErrorComponent&#45;&gt;AppModule</title>
<path fill="none" stroke="#000000" d="M1109,-122.1289C1109,-142.5724 1109,-173 1109,-173 1109,-173 741.7072,-173 741.7072,-173"/>
<polygon fill="#000000" stroke="#000000" points="741.7072,-169.5001 731.7072,-173 741.7071,-176.5001 741.7072,-169.5001"/>
</g>
<!-- HeaderComponent -->
<g id="node3" class="node">
<title>HeaderComponent</title>
<polygon fill="#ffffb3" stroke="#000000" points="1035.7437,-122 914.2563,-122 914.2563,-86 1035.7437,-86 1035.7437,-122"/>
<text text-anchor="middle" x="975" y="-99.8" font-family="Times,serif" font-size="14.00" fill="#000000">HeaderComponent</text>
</g>
<!-- HeaderComponent&#45;&gt;AppModule -->
<g id="edge3" class="edge">
<title>HeaderComponent&#45;&gt;AppModule</title>
<path fill="none" stroke="#000000" d="M975,-122.2667C975,-140.5552 975,-166 975,-166 975,-166 741.7467,-166 741.7467,-166"/>
<polygon fill="#000000" stroke="#000000" points="741.7467,-162.5001 731.7467,-166 741.7466,-169.5001 741.7467,-162.5001"/>
</g>
<!-- MapComponent -->
<g id="node4" class="node">
<title>MapComponent</title>
<polygon fill="#ffffb3" stroke="#000000" points="896.4916,-122 789.5084,-122 789.5084,-86 896.4916,-86 896.4916,-122"/>
<text text-anchor="middle" x="843" y="-99.8" font-family="Times,serif" font-size="14.00" fill="#000000">MapComponent</text>
</g>
<!-- MapComponent&#45;&gt;AppModule -->
<g id="edge4" class="edge">
<title>MapComponent&#45;&gt;AppModule</title>
<path fill="none" stroke="#000000" d="M843,-122.0091C843,-138.0494 843,-159 843,-159 843,-159 741.8079,-159 741.8079,-159"/>
<polygon fill="#000000" stroke="#000000" points="741.808,-155.5001 731.8079,-159 741.8079,-162.5001 741.808,-155.5001"/>
</g>
<!-- AppComponent  -->
<g id="node9" class="node">
<title>AppComponent </title>
<polygon fill="#80b1d3" stroke="#000000" points="744.439,-252 635.561,-252 635.561,-216 744.439,-216 744.439,-252"/>
<text text-anchor="middle" x="690" y="-229.8" font-family="Times,serif" font-size="14.00" fill="#000000">AppComponent </text>
</g>
<!-- AppModule&#45;&gt;AppComponent  -->
<g id="edge8" class="edge">
<title>AppModule&#45;&gt;AppComponent </title>
<path fill="none" stroke="#000000" stroke-dasharray="1,5" d="M690,-187.1061C690,-187.1061 690,-205.991 690,-205.991"/>
<polygon fill="#000000" stroke="#000000" points="686.5001,-205.9909 690,-215.991 693.5001,-205.991 686.5001,-205.9909"/>
</g>
<!-- AngularMaterialModule -->
<g id="node6" class="node">
<title>AngularMaterialModule</title>
<polygon fill="#8dd3c7" stroke="#000000" points="766.3431,-122 763.3431,-126 742.3431,-126 739.3431,-122 613.6569,-122 613.6569,-86 766.3431,-86 766.3431,-122"/>
<text text-anchor="middle" x="690" y="-99.8" font-family="Times,serif" font-size="14.00" fill="#000000">AngularMaterialModule</text>
</g>
<!-- AngularMaterialModule&#45;&gt;AppModule -->
<g id="edge5" class="edge">
<title>AngularMaterialModule&#45;&gt;AppModule</title>
<path fill="none" stroke="#000000" d="M690,-122.1061C690,-122.1061 690,-140.991 690,-140.991"/>
<polygon fill="#000000" stroke="#000000" points="686.5001,-140.9909 690,-150.991 693.5001,-140.991 686.5001,-140.9909"/>
</g>
<!-- AppRoutingModule -->
<g id="node7" class="node">
<title>AppRoutingModule</title>
<polygon fill="#8dd3c7" stroke="#000000" points="595.2744,-122 592.2744,-126 571.2744,-126 568.2744,-122 466.7256,-122 466.7256,-86 595.2744,-86 595.2744,-122"/>
<text text-anchor="middle" x="531" y="-99.8" font-family="Times,serif" font-size="14.00" fill="#000000">AppRoutingModule</text>
</g>
<!-- AppRoutingModule&#45;&gt;AppModule -->
<g id="edge6" class="edge">
<title>AppRoutingModule&#45;&gt;AppModule</title>
<path fill="none" stroke="#000000" d="M531,-122.0091C531,-138.0494 531,-159 531,-159 531,-159 638.2246,-159 638.2246,-159"/>
<polygon fill="#000000" stroke="#000000" points="638.2247,-162.5001 648.2246,-159 638.2246,-155.5001 638.2247,-162.5001"/>
</g>
<!-- PostsModule -->
<g id="node8" class="node">
<title>PostsModule</title>
<polygon fill="#8dd3c7" stroke="#000000" points="448.6123,-122 445.6123,-126 424.6123,-126 421.6123,-122 359.3877,-122 359.3877,-86 448.6123,-86 448.6123,-122"/>
<text text-anchor="middle" x="404" y="-99.8" font-family="Times,serif" font-size="14.00" fill="#000000">PostsModule</text>
</g>
<!-- PostsModule&#45;&gt;AppModule -->
<g id="edge7" class="edge">
<title>PostsModule&#45;&gt;AppModule</title>
<path fill="none" stroke="#000000" d="M404,-122.2667C404,-140.5552 404,-166 404,-166 404,-166 638.1069,-166 638.1069,-166"/>
<polygon fill="#000000" stroke="#000000" points="638.1069,-169.5001 648.1069,-166 638.1068,-162.5001 638.1069,-169.5001"/>
</g>
<!-- AuthInterceptor -->
<g id="node10" class="node">
<title>AuthInterceptor</title>
<ellipse fill="#fdb462" stroke="#000000" cx="262" cy="-104" rx="72.9121" ry="18"/>
<text text-anchor="middle" x="262" y="-99.8" font-family="Times,serif" font-size="14.00" fill="#000000">AuthInterceptor</text>
</g>
<!-- AuthInterceptor&#45;&gt;AppModule -->
<g id="edge9" class="edge">
<title>AuthInterceptor&#45;&gt;AppModule</title>
<path fill="none" stroke="#000000" d="M262,-122.1289C262,-142.5724 262,-173 262,-173 262,-173 638.1823,-173 638.1823,-173"/>
<polygon fill="#000000" stroke="#000000" points="638.1823,-176.5001 648.1823,-173 638.1822,-169.5001 638.1823,-176.5001"/>
</g>
<!-- ErrorInterceptor -->
<g id="node11" class="node">
<title>ErrorInterceptor</title>
<ellipse fill="#fdb462" stroke="#000000" cx="98" cy="-104" rx="73.5329" ry="18"/>
<text text-anchor="middle" x="98" y="-99.8" font-family="Times,serif" font-size="14.00" fill="#000000">ErrorInterceptor</text>
</g>
<!-- ErrorInterceptor&#45;&gt;AppModule -->
<g id="edge10" class="edge">
<title>ErrorInterceptor&#45;&gt;AppModule</title>
<path fill="none" stroke="#000000" d="M98,-122.0109C98,-144.4852 98,-180 98,-180 98,-180 637.8994,-180 637.8994,-180"/>
<polygon fill="#000000" stroke="#000000" points="637.8994,-183.5001 647.8994,-180 637.8994,-176.5001 637.8994,-183.5001"/>
</g>
</g>
</svg>
